<svg id="Human_Resource-List-Resume-Interview-Job" height="512" viewBox="0 0 64 64" width="512" xmlns="http://www.w3.org/2000/svg" data-name="Human Resource-List-Resume-Interview-Job"><rect fill="#e6e7e8" height="48" rx="2" width="38" x="13" y="13"/><path d="m47 18a12.963 12.963 0 0 1 -5 10.24 13.154 13.154 0 0 1 -1.08.76 12.972 12.972 0 0 1 -13.84 0 13.154 13.154 0 0 1 -1.08-.76 12.995 12.995 0 0 1 -4.65-13.24 12.3 12.3 0 0 1 .65-2h24a12.3 12.3 0 0 1 .65 2 12.9 12.9 0 0 1 .35 3z" fill="#d8d7da"/><path d="m45 16a12.963 12.963 0 0 1 -5 10.24 13.154 13.154 0 0 1 -1.08.76 12.972 12.972 0 0 1 -13.84 0 13.154 13.154 0 0 1 -1.08-.76 13 13 0 1 1 21-10.24z" fill="#ffd422"/><path d="m61 19v36a2.006 2.006 0 0 1 -2 2h-8v-40h8a2.006 2.006 0 0 1 2 2z" fill="#d1d3d4"/><path d="m3 55v-36a2.006 2.006 0 0 1 2-2h8v40h-8a2.006 2.006 0 0 1 -2-2z" fill="#d1d3d4"/><path d="m33.45 11.89-.45-.89-.24.24a5.993 5.993 0 0 1 -4.25 1.76h-.51v-2a4 4 0 0 1 8 0v2h-.76a1.989 1.989 0 0 1 -1.79-1.11z" fill="#57565c"/><path d="m34 20-2 2-2-2v-2.54a3.974 3.974 0 0 0 4 0z" fill="#ffc477"/><path d="m30 20 2 2-3 2-1.29-2.86z" fill="#1e81ce"/><path d="m35.24 13a1.989 1.989 0 0 1 -1.79-1.11l-.45-.89-.24.24a5.993 5.993 0 0 1 -4.25 1.76h-.51v1a4 4 0 0 0 8 0v-1z" fill="#ffc477"/><path d="m36.29 21.14-1.29 2.86-3-2 2-2z" fill="#1e81ce"/><path d="m37.79 21.89-1.5-.75-1.29 2.86-3-2-3 2-1.29-2.86-1.5.75a4.02 4.02 0 0 0 -2.21 3.58v.77a13.154 13.154 0 0 0 1.08.76 12.972 12.972 0 0 0 13.84 0 13.154 13.154 0 0 0 1.08-.76v-.77a4.02 4.02 0 0 0 -2.21-3.58z" fill="#3d9ae2"/><path d="m26.28 48.72a4 4 0 1 1 -3.28-1.72 4.009 4.009 0 0 1 3.28 1.72z" fill="#ff9811"/><path d="m26.28 36.72a4 4 0 1 1 -3.28-1.72 4.009 4.009 0 0 1 3.28 1.72z" fill="#ff9811"/><path d="m51 17h2v40h-2z" fill="#bcbec0"/><path d="m11 17h2v40h-2z" fill="#bcbec0"/><g fill="#acabb1"><path d="m6 24h4v2h-4z"/><path d="m6 28h4v2h-4z"/><path d="m6 32h4v2h-4z"/><path d="m6 36h4v2h-4z"/><path d="m6 40h4v2h-4z"/><path d="m6 44h4v2h-4z"/><path d="m6 48h4v2h-4z"/><path d="m54 24h4v2h-4z"/><path d="m54 28h4v2h-4z"/><path d="m54 32h4v2h-4z"/><path d="m54 36h4v2h-4z"/><path d="m54 40h4v2h-4z"/><path d="m54 44h4v2h-4z"/><path d="m54 48h4v2h-4z"/></g><path d="m21.964 36.5h7.071v2h-7.071z" fill="#ed1c24" transform="matrix(.707 -.707 .707 .707 -19.048 29.015)"/><path d="m37 36h8v2h-8z" fill="#c6c5ca"/><path d="m33 40h12v2h-12z" fill="#c6c5ca"/><path d="m21.964 48.5h7.071v2h-7.071z" fill="#ed1c24" transform="matrix(.707 -.707 .707 .707 -27.533 32.529)"/><path d="m33 48h12v2h-12z" fill="#c6c5ca"/><path d="m33 52h12v2h-12z" fill="#c6c5ca"/><path d="m33 36h2v2h-2z" fill="#c6c5ca"/></svg>